<svg width="40" height="40" viewBox="0 0 40 40" fill="none" xmlns="http://www.w3.org/2000/svg">
<ellipse cx="19.8434" cy="19.7778" rx="19.8434" ry="19.7778" fill="#DCE8FF"/>
<g clip-path="url(#clip0_4_167)">
<path d="M19.8433 28.4306C25.3226 28.4306 29.765 24.5566 29.765 19.7778C29.765 14.999 25.3226 11.125 19.8433 11.125C14.3641 11.125 9.92163 14.999 9.92163 19.7778C9.92163 21.9533 10.8431 23.9435 12.3648 25.4639C12.2445 26.7198 11.8477 28.0968 11.4086 29.1302C11.3107 29.3601 11.5004 29.6172 11.7472 29.5777C14.5451 29.1203 16.2083 28.4182 16.9313 28.0523C17.8812 28.3048 18.8602 28.432 19.8433 28.4306Z" fill="#5D91CE"/>
</g>
<defs>
<clipPath id="clip0_4_167">
<rect width="19.8434" height="19.7778" fill="white" transform="translate(9.92163 9.88892)"/>
</clipPath>
</defs>
</svg>
