<svg width="30" height="28" viewBox="0 0 30 28" fill="none" xmlns="http://www.w3.org/2000/svg">
<path d="M26.6484 23.3652L19.04 16.2641C20.2207 14.8395 20.8594 13.0977 20.8594 11.2656C20.8594 9.07266 19.9424 7.01641 18.2842 5.46602C16.626 3.91562 14.417 3.0625 12.0703 3.0625C9.72363 3.0625 7.51465 3.91836 5.85645 5.46602C4.19531 7.01367 3.28125 9.07266 3.28125 11.2656C3.28125 13.4559 4.19824 15.5176 5.85645 17.0652C7.51465 18.6156 9.7207 19.4688 12.0703 19.4688C14.0332 19.4688 15.8965 18.8727 17.4229 17.7734L25.0312 24.8719C25.0536 24.8927 25.08 24.9092 25.1092 24.9205C25.1384 24.9318 25.1696 24.9376 25.2012 24.9376C25.2327 24.9376 25.264 24.9318 25.2931 24.9205C25.3223 24.9092 25.3488 24.8927 25.3711 24.8719L26.6484 23.6824C26.6708 23.6616 26.6885 23.6369 26.7005 23.6097C26.7126 23.5825 26.7189 23.5533 26.7189 23.5238C26.7189 23.4944 26.7126 23.4652 26.7005 23.438C26.6885 23.4108 26.6708 23.3861 26.6484 23.3652ZM16.7109 15.5969C15.4688 16.7535 13.8223 17.3906 12.0703 17.3906C10.3184 17.3906 8.67188 16.7535 7.42969 15.5969C6.19043 14.4375 5.50781 12.9008 5.50781 11.2656C5.50781 9.63047 6.19043 8.09102 7.42969 6.93438C8.67188 5.77773 10.3184 5.14062 12.0703 5.14062C13.8223 5.14062 15.4717 5.775 16.7109 6.93438C17.9502 8.09375 18.6328 9.63047 18.6328 11.2656C18.6328 12.9008 17.9502 14.4402 16.7109 15.5969Z" fill="black"/>
</svg>
